<svg t="1679646497325" class="icon" viewBox="0 0 1024 1024" version="1.1" xmlns="http://www.w3.org/2000/svg" p-id="8514" width="16" height="16"><path d="M896 0H128a128 128 0 0 0-128 128v768a128 128 0 0 0 128 128h768a128 128 0 0 0 128-128V128a128 128 0 0 0-128-128" fill="#5B8AF7" p-id="8515"></path><path d="M388.736 757.76l9.408-133.632-75.264 48s-14.08 120.128-16.512 154.56c-4.288 56 70.272 46.08 70.272 46.08l136.768-139.52-23.872-100.672-100.8 125.184zM704 504.32s29.184-30.72 78.016-84.48c48.768-53.632 83.84-107.456 62.4-130.432-5.888-36.48-249.6 30.72-249.6 30.72S550.016 247.04 501.12 174.144c-60.48-67.2-101.376 30.592-101.376 30.592l-39.04 184.32s-152.064 44.16-210.56 69.12c-44.928 30.72-7.872 84.352-7.872 84.352L298.368 611.84l85.824-53.76-140.416-61.44 187.264-46.016 31.232-191.936L555.84 404.48l171.712-38.4L610.432 512l78.08 145.792-132.672-38.4 15.616 92.096s116.992 34.496 156.032 38.4c70.208 5.76 62.4-69.12 62.4-69.12L704 504.32z" fill="#FFFFFF" p-id="8516"></path></svg>