<svg t="1682242928826" class="icon" viewBox="0 0 1336 1024" version="1.1" xmlns="http://www.w3.org/2000/svg" p-id="2806" width="160" height="160"><path d="M1024.472044 3.610096C1004.598345-0.305938 966.068447-2.337339 934.960315 33.61412 833.213144 192.808667 751.653449 223.36971 709.921756 229.287515 705.371746 229.929541 705.511317 235.73569 710.507954 237.187228 723.32056 240.927726 735.267829 243.216689 749.420317 244.389084 781.409963 247.096759 811.389787 242.937547 842.039554 234.954093 909.39646 217.451905 1004.276745 176.641378 1050.111822 114.085709 1062.617373 97.030148 1067.558184 86.701903 1068.81432 79.555873 1070.824141 74.084695 1071.996536 68.194804 1071.996536 62.025771 1071.996536 34.279079 1051.039809 8.845169 1024.472044 3.610096Z" fill="#4CA6FF" p-id="2807"></path><path d="M1292.326749 794.436539C1291.729005 794.293079 1287.999072 794.12571 1285.727639 794.197439 1283.910493 794.24526 1282.069437 794.3409 1281.113043 794.412629 1273.892276 794.890825 1266.575872 795.106015 1259.235555 795.106015 1166.274164 795.106015 1060.305829 771.698296 997.040437 709.604488 994.529906 707.117866 992.115015 704.607334 989.724033 702.001163 988.528542 700.733943 959.860663 668.69478 997.638184 642.441795 1025.588767 627.378606 1062.720721 596.319746 1062.720721 596.319746 1087.515207 574.585718 1108.245023 552.469132 1125.460097 530.352544 1168.689056 474.881756 1195.587606 397.127012 1201.684611 358.273549 1208.044624 317.913769 1215.624038 248.216636 1199.078442 180.982213 1197.739491 175.482954 1196.591819 166.899328 1190.662184 159.702471 1184.756458 152.577344 1175.862003 148.034478 1165.891606 148.034478 1156.734146 148.034478 1148.437437 151.883959 1142.579529 158.076603 1140.642834 160.132848 1136.147788 166.994967 1135.334854 168.142639 1132.991691 171.537833 1130.146422 175.841601 1126.177391 181.269131 1070.802241 256.991541 1003.974286 323.102201 871.633417 355.045723 827.99799 365.589956 786.060161 366.881086 761.839511 366.092063 687.599511 363.701079 659.601107 321.691521 644.537921 302.87449 622.77998 272.341646 607.119046 248.049266 577.423046 226.769524 453.689714 138.064081 336.86632 183.612294 310.182957 196.714877 189.175343 256.130787 168.636805 356.767232 147.667891 410.157866 140.734042 427.875045 128.444393 442.316577 111.468419 455.658258 93.72733 469.621595 53.678377 500.297897 34.693977 534.034657 33.283298 536.569099 35.291723 538.864442 37.276238 539.17527 38.639098 539.414368 40.025868 538.553613 40.169327 538.505795 59.96666 528.965774 105.538783 513.37657 155.486403 539.366549 217.197655 571.477439 229.798132 615.136777 304.874977 710.130503 379.425803 804.454754 496.846944 921.206419 707.205565 966.515534 865.632051 1000.658761 995.749307 975.1948 1099.374481 937.895475 1116.709102 931.655012 1172.490719 905.162928 1176.435839 902.987135 1220.453823 878.862122 1261.650448 850.552892 1298.901951 818.968017 1301.316844 817.007411 1302.440606 814.257782 1302.655793 813.660035 1303.229629 812.105897 1303.540458 810.45612 1303.540458 808.710703 1303.540458 801.800764 1298.758493 796.014588 1292.326749 794.436539L1292.326749 794.436539Z" fill="#4CA6FF" p-id="2808"></path><path d="M422.13287 440.306421m-89.043478 0a4 4 0 1 0 178.086957 0 4 4 0 1 0-178.086957 0Z" p-id="2809"></path></svg>